<?xml version="1.0" encoding="UTF-8"?>
<svg xmlns="http://www.w3.org/2000/svg" xmlns:xlink="http://www.w3.org/1999/xlink" width="444.2pt" height="147.1pt" viewBox="0 0 444.2 147.1" version="1.1">
<g id="surface1">
<path style=" stroke:none;fill-rule:evenodd;fill:rgb(0%,0%,0%);fill-opacity:1;" d="M 0.511719 140.476563 C 6.226563 141.027344 27.351563 137.761719 34.914063 137.03125 C 163.132813 124.621094 304.472656 124.976563 431.71875 139.554688 C 444.203125 140.984375 442.160156 147.078125 442.160156 115.136719 C 442.160156 97.886719 442.886719 11.6875 442.019531 2.15625 C 437.671875 0.863281 388.390625 6.242188 379.515625 7.015625 C 379.070313 12.191406 381.066406 13.460938 375.242188 13.660156 C 371.445313 13.789063 367.597656 13.847656 363.785156 13.976563 C 356.800781 14.207031 349.730469 14.4375 342.648438 14.6875 C 340.667969 14.757813 338.460938 14.945313 336.53125 14.972656 C 333.199219 15.023438 333.421875 14.777344 332.144531 13.847656 C 330.285156 12.496094 334.230469 12.496094 328.367188 12.066406 C 322.957031 11.667969 308.792969 13.425781 301.070313 12.183594 C 300.5625 10.804688 300.785156 10.042969 300.46875 9.375 C 299.519531 7.371094 301.078125 8.519531 298.800781 7.46875 L 266.03125 7.753906 L 264.570313 11.433594 L 261.757813 8.054688 C 255.703125 8.613281 247.847656 10.523438 241.566406 11.714844 C 226.214844 14.621094 195.757813 8.921875 175.378906 9.148438 L 173.253906 15.871094 C 163.550781 12.457031 159.726563 9.324219 146.855469 9.472656 C 136.867188 9.589844 124.214844 9.269531 114.46875 10.261719 L 113.472656 15.917969 C 109.453125 14.96875 104.761719 8.941406 92.277344 8.128906 C 81.480469 7.425781 76.730469 10.917969 68.246094 12.027344 L 67.46875 1.007813 L 0.0976563 -0.0546875 Z M 0.511719 140.476563 "/>
<path style=" stroke:none;fill-rule:evenodd;fill:rgb(99.609375%,99.609375%,99.609375%);fill-opacity:1;" d="M 274.78125 64.421875 L 271.792969 59.746094 L 257.914063 20.058594 L 236.21875 23.769531 L 236.035156 112.898438 L 259.613281 113.382813 L 258.734375 73.976563 L 267.179688 94.558594 L 275.367188 115.824219 L 284.289063 115.664063 L 294.246094 114.382813 L 294.464844 18.789063 L 272.34375 18.84375 Z M 274.78125 64.421875 "/>
<path style=" stroke:none;fill-rule:evenodd;fill:rgb(99.609375%,99.609375%,99.609375%);fill-opacity:1;" d="M 145.925781 41.789063 C 152.769531 42.695313 155.179688 48.082031 155.113281 55.417969 C 155.050781 62.277344 152.882813 67.960938 146.136719 68.226563 Z M 121.109375 114.4375 L 147.207031 112.566406 L 146.851563 84.871094 L 157.269531 118.261719 L 182.921875 116.84375 L 175.972656 97.390625 L 169.535156 77.265625 C 180.035156 72.210938 184.742188 54.203125 178.480469 40.441406 C 168.328125 18.128906 148.980469 20.820313 130.210938 20.984375 C 119.59375 21.078125 122.171875 17.53125 122.125 56.171875 C 122.132813 75.035156 120.386719 96.105469 121.109375 114.4375 Z M 121.109375 114.4375 "/>
<path style=" stroke:none;fill-rule:evenodd;fill:rgb(99.609375%,99.609375%,99.609375%);fill-opacity:1;" d="M 86.949219 38.9375 C 91.355469 39.894531 91.117188 44.308594 91.753906 51.210938 C 92.519531 59.527344 92.523438 76.800781 91.691406 85.109375 C 91.269531 89.339844 91.210938 96 87.886719 98.8125 C 81.296875 94.554688 81.316406 43.890625 86.949219 38.9375 Z M 83.574219 20.429688 C 59.1875 23.671875 57.121094 48.925781 57.378906 73.558594 C 57.628906 97.410156 66.445313 121.214844 93.027344 116.53125 C 116.007813 112.480469 118.582031 87.964844 117.902344 62.953125 C 117.3125 41.070313 111.550781 16.707031 83.574219 20.429688 Z M 83.574219 20.429688 "/>
<path style=" stroke:none;fill-rule:evenodd;fill:rgb(99.609375%,99.609375%,99.609375%);fill-opacity:1;" d="M 385.65625 19.027344 L 385.890625 122.019531 L 428.632813 124.800781 L 428.96875 97.269531 L 410.246094 96.222656 L 410.074219 80.71875 L 426.152344 80.480469 L 426.144531 59.621094 L 409.976563 58.617188 L 410.332031 43.609375 L 429.269531 42.257813 L 428.828125 15.296875 Z M 385.65625 19.027344 "/>
<path style=" stroke:none;fill-rule:evenodd;fill:rgb(99.609375%,99.609375%,99.609375%);fill-opacity:1;" d="M 11.980469 128.085938 L 37.460938 122.980469 L 38 82 L 52.863281 80.921875 L 53.320313 57.160156 L 37.523438 57.394531 L 37.332031 39.539063 L 58.324219 38.914063 L 58.730469 13.671875 L 10.621094 13.433594 Z M 11.980469 128.085938 "/>
<path style=" stroke:none;fill-rule:evenodd;fill:rgb(99.609375%,99.609375%,99.609375%);fill-opacity:1;" d="M 194.390625 44.902344 L 195.042969 114.542969 L 220.710938 114.265625 L 220.304688 49.449219 L 233.339844 49.054688 L 233.839844 24.441406 L 181.144531 20.765625 L 181.722656 44.46875 Z M 194.390625 44.902344 "/>
<path style=" stroke:none;fill-rule:evenodd;fill:rgb(99.609375%,99.609375%,99.609375%);fill-opacity:1;" d="M 329.8125 26.964844 L 329.207031 38.785156 L 329.304688 51.394531 L 343.234375 51.46875 L 343.464844 120.386719 L 367.632813 120.527344 L 367.550781 49.703125 L 381.539063 49.246094 L 381.8125 25.476563 Z M 329.8125 26.964844 "/>
<path style=" stroke:none;fill-rule:evenodd;fill:rgb(99.609375%,99.609375%,99.609375%);fill-opacity:1;" d="M 300.886719 118.164063 L 326.753906 118.246094 L 326.242188 23.539063 L 300.339844 23.570313 Z M 300.886719 118.164063 "/>
<path style=" stroke:none;fill-rule:evenodd;fill:rgb(0%,0%,0%);fill-opacity:1;" d="M 86.949219 38.9375 C 81.316406 43.890625 81.296875 94.554688 87.886719 98.8125 C 91.210938 96 91.269531 89.339844 91.691406 85.109375 C 92.523438 76.800781 92.519531 59.527344 91.753906 51.210938 C 91.117188 44.308594 91.355469 39.894531 86.949219 38.9375 Z M 86.949219 38.9375 "/>
<path style=" stroke:none;fill-rule:evenodd;fill:rgb(0%,0%,0%);fill-opacity:1;" d="M 146.136719 68.222656 C 152.882813 67.960938 155.050781 62.273438 155.113281 55.417969 C 155.179688 48.082031 152.769531 42.695313 145.925781 41.789063 Z M 146.136719 68.222656 "/>
</g>
</svg>
